<?xml version="1.0" encoding="utf-8"?>
<!-- Generator: Adobe Illustrator 16.0.0, SVG Export Plug-In . SVG Version: 6.00 Build 0)  -->
<!DOCTYPE svg PUBLIC "-//W3C//DTD SVG 1.1//EN" "http://www.w3.org/Graphics/SVG/1.1/DTD/svg11.dtd">
<svg version="1.1" id="Layer_1" xmlns="http://www.w3.org/2000/svg" xmlns:xlink="http://www.w3.org/1999/xlink" x="0px" y="0px"
	 width="79.031px" height="125.682px" viewBox="89.77 0 79.031 125.682" enable-background="new 89.77 0 79.031 125.682"
	 xml:space="preserve">
<g>
	<path fill="#182B86" d="M89.666,112.809l12.752,0.023c0.169-2.212,0.018-5.063,0.018-7.346c0-2.479,0.012-4.963-0.001-7.441
		c-0.005-0.951-0.042-0.759,0.424-1.324c0.293-0.354,0.58-0.635,0.871-0.99l4.851-5.377c0.163-0.181,0.26-0.326,0.418-0.492
		c0.27,0.188,1.733,2.365,2.067,2.824c0.685,0.941,1.375,1.924,2.04,2.865c3.352,4.749,6.983,9.631,10.245,14.362l2.071,2.912
		l14.941,0.003c-0.141-0.307-0.475-0.715-0.672-0.991l-7.791-10.981c-0.988-1.357-1.838-2.652-2.844-4.004l-5.681-8.021
		c-1.693-2.458-4.17-5.681-5.687-8.035c0.44-0.625,0.908-1.028,1.367-1.614L139,56.165c0.236-0.308,0.466-0.505,0.68-0.814
		c-1.252-0.101-13.041-0.043-15.138-0.017c-0.486,0.802-6.848,7.838-8.245,9.585c-0.843,1.056-1.908,2.151-2.78,3.226l-9.65,11.149
		c-0.196,0.246-1.215,1.454-1.433,1.586l0.001-25.552l-12.77,0.002L89.666,112.809L89.666,112.809z"/>
	<path fill="#CA161E" d="M89.7,27.861c-0.015,2.584-0.152,24.415,0.07,24.976l12.659,0.001c0.129-1.134,0.033-14.755,0.036-17.62
		c0.405-0.371,12.885-7.542,13.455-7.883c3.854-2.305,7.908-4.553,11.754-6.849c2.084-1.244,1-1.179,5.069,1.142l22.708,13.229
		c0.563,0.312,0.535,0.162,0.535,1.122l0.002,16.852l12.755,0.001l0.004-24.971l-0.274-0.192c-0.123-0.075-0.205-0.114-0.326-0.181
		c-6.319-3.569-12.76-7.506-19.121-11.148l-9.889-5.758c-0.469-0.285-9.598-5.696-9.918-5.692c-0.272,0.004-8.882,5.075-9.865,5.669
		l-9.882,5.761c-6.28,3.645-12.885,7.429-19.13,11.143L89.7,27.861z"/>
	<path fill="#182B86" d="M144.089,101.682l0.001,11.5c4.35,0.508,5.742,0.873,10.438,0.28c4.563-0.573,8.888-2.043,11.287-5.789
		c0.787-1.228,1.183-2.444,1.705-3.963c1.11-3.222,1.254-6.772,1.26-10.399V55.34l-12.771-0.011v36.966
		c0,2.348,0.078,4.607-0.786,6.645C153.499,103,147.714,102.464,144.089,101.682z"/>
	<path fill="#E30314" d="M152.082,115.707c-6.582,1.398-4.602,11.451,2.195,10.018C160.809,124.346,158.836,114.271,152.082,115.707
		L152.082,115.707z M152.422,117.4c1.987-0.52,3.544,0.925,3.883,2.504c0.443,2.07-0.798,3.742-2.363,4.127
		C149.74,125.061,148.223,118.498,152.422,117.4z"/>
	<path fill="#E30314" d="M136.889,125.693c1.188,0.013,2.383,0.005,3.571,0.004c4.806-0.006,4.218-4.557,2.292-5.567
		c0.277-0.694,0.758-1.03,0.546-2.174c-0.157-0.851-0.64-1.424-1.14-1.739c-1.172-0.738-3.704-0.507-5.252-0.486L136.889,125.693
		L136.889,125.693z M138.783,119.572l0.021-2.127c1.139-0.072,2.637-0.178,2.637,1.063
		C141.439,119.75,139.951,119.645,138.783,119.572L138.783,119.572z M138.783,123.979l0.002-2.67
		c1.406-0.113,3.523-0.281,3.508,1.344C142.277,124.259,140.217,124.068,138.783,123.979z"/>
	<path fill="#E30314" d="M111.361,125.691l1.892,0.004v-4.383c0.813-0.113,0.698-0.026,1.579,1.09l2.383,3.031
		c0.315,0.383,0.521,0.268,1.09,0.264c0.479-0.004,0.96,0.01,1.439-0.014c-0.145-0.279-0.648-0.838-0.888-1.132
		c-0.469-0.571-2.579-3.147-2.684-3.424c0.685-0.446,1.291-0.649,1.641-1.761c0.553-1.752-0.506-3.62-2.971-3.645
		c-1.144-0.01-2.322-0.017-3.465,0.006L111.361,125.691L111.361,125.691z M113.257,119.559l0.017-2.104
		c1.128-0.106,2.773-0.271,2.777,1.057C116.054,119.82,114.473,119.648,113.257,119.559z"/>
	<path fill="#E30314" d="M89.481,125.682l1.895,0.006l0.001-4.043c1.38-0.011,2.963,0.17,3.972-0.554
		c1.816-1.302,1.6-4.897-1.386-5.313c-0.967-0.133-3.435-0.104-4.469-0.036L89.481,125.682L89.481,125.682z M91.371,119.898
		l0.014-2.437c0.365-0.062,1.814-0.06,2.181,0.009c1.393,0.246,1.406,2.166,0.014,2.424
		C93.175,119.971,91.77,119.979,91.371,119.898z"/>
	<path fill="#E30314" d="M123.147,125.665l1.838,0.03c0.37-0.082,0.627-1.575,1.1-2.188l3.917-0.015l0.909,2.189l1.967,0.008
		l-4.188-9.955l-1.339-0.01L123.147,125.665L123.147,125.665z M126.796,121.771c0.039-0.17,0.992-2.596,1.253-2.855l1.162,2.87
		L126.796,121.771z"/>
	<polygon fill="#E30314" points="100.772,125.691 106.811,125.695 106.811,123.995 102.683,123.988 102.664,121.227 
		105.685,121.214 105.688,119.54 102.677,119.512 102.668,117.439 106.663,117.434 106.662,115.729 100.792,115.729 	"/>
	<polygon fill="#E30314" points="161.714,117.434 164.281,117.436 164.311,125.688 166.203,125.695 166.204,117.462 
		168.801,117.432 168.799,115.73 161.738,115.729 	"/>
</g>
</svg>
