<?xml version="1.0" encoding="utf-8"?>
<!-- Generator: Adobe Illustrator 16.0.0, SVG Export Plug-In . SVG Version: 6.00 Build 0)  -->
<!DOCTYPE svg PUBLIC "-//W3C//DTD SVG 1.1//EN" "http://www.w3.org/Graphics/SVG/1.1/DTD/svg11.dtd">
<svg version="1.1" id="Layer_1" xmlns="http://www.w3.org/2000/svg" xmlns:xlink="http://www.w3.org/1999/xlink" x="0px" y="0px"
	 width="30px" height="30px" viewBox="0 0 30 30" enable-background="new 0 0 30 30" xml:space="preserve">
<g>
	<path id="Blue_1_" fill="#3C5A99" d="M28.345,30C29.259,30,30,29.259,30,28.345V1.656C30,0.741,29.259,0,28.345,0H1.656
		C0.741,0,0,0.741,0,1.656v26.689C0,29.259,0.741,30,1.656,30H28.345L28.345,30z"/>
	<path id="f" fill="#FFFFFF" d="M20.699,30V18.383h3.899l0.584-4.528h-4.483v-2.891c0-1.311,0.364-2.205,2.244-2.205l2.397-0.001
		V4.709c-0.415-0.055-1.838-0.178-3.493-0.178c-3.457,0-5.824,2.11-5.824,5.984v3.339h-3.909v4.528h3.909V30H20.699z"/>
</g>
</svg>
