<?xml version="1.0" encoding="utf-8"?>
<!-- Generator: Adobe Illustrator 16.0.0, SVG Export Plug-In . SVG Version: 6.00 Build 0)  -->
<!DOCTYPE svg PUBLIC "-//W3C//DTD SVG 1.1//EN" "http://www.w3.org/Graphics/SVG/1.1/DTD/svg11.dtd">
<svg version="1.1" id="Layer_1" xmlns="http://www.w3.org/2000/svg" xmlns:xlink="http://www.w3.org/1999/xlink" x="0px" y="0px"
	 width="30px" height="30px" viewBox="0 0 30 30" enable-background="new 0 0 30 30" xml:space="preserve">
<path id="White_2_" fill="#FFFFFF" d="M28.345,0H1.656C0.742,0,0,0.741,0,1.656v26.688C0,29.259,0.742,30,1.656,30h14.368V18.383
	h-3.91v-4.528h3.91v-3.339c0-3.875,2.366-5.984,5.823-5.984c1.656,0,3.079,0.123,3.493,0.178v4.049L22.943,8.76
	c-1.879,0-2.243,0.894-2.243,2.205v2.891h4.483L24.6,18.383H20.7V30h7.645C29.259,30,30,29.259,30,28.344V1.656
	C30,0.741,29.259,0,28.345,0z"/>
</svg>
