<?xml version="1.0" encoding="utf-8"?>
<!-- Generator: Adobe Illustrator 16.0.0, SVG Export Plug-In . SVG Version: 6.00 Build 0)  -->
<!DOCTYPE svg PUBLIC "-//W3C//DTD SVG 1.1//EN" "http://www.w3.org/Graphics/SVG/1.1/DTD/svg11.dtd">
<svg version="1.1" id="Layer_1" xmlns="http://www.w3.org/2000/svg" xmlns:xlink="http://www.w3.org/1999/xlink" x="0px" y="0px"
	 width="30px" height="30px" viewBox="0 0 30 30" enable-background="new 0 0 30 30" xml:space="preserve">
<g>
	<g>
		<path fill="#FFFFFF" d="M15.001,2.703c4.005,0,4.479,0.015,6.062,0.087c1.462,0.067,2.256,0.311,2.785,0.517
			c0.7,0.272,1.199,0.597,1.725,1.122c0.524,0.525,0.85,1.024,1.122,1.725c0.205,0.529,0.45,1.323,0.517,2.785
			c0.072,1.582,0.087,2.056,0.087,6.062s-0.015,4.48-0.087,6.061c-0.066,1.463-0.312,2.257-0.517,2.785
			c-0.272,0.7-0.597,1.2-1.122,1.725c-0.525,0.525-1.024,0.851-1.725,1.122c-0.529,0.206-1.323,0.45-2.785,0.517
			c-1.582,0.072-2.056,0.088-6.062,0.088c-4.005,0-4.48-0.016-6.062-0.088c-1.462-0.066-2.256-0.311-2.785-0.517
			c-0.7-0.271-1.2-0.597-1.725-1.122c-0.525-0.524-0.85-1.024-1.122-1.725c-0.206-0.528-0.45-1.322-0.517-2.785
			C2.719,19.48,2.704,19.006,2.704,15s0.015-4.479,0.087-6.061c0.067-1.463,0.311-2.257,0.517-2.786
			c0.272-0.7,0.597-1.2,1.122-1.725s1.024-0.85,1.725-1.122c0.529-0.206,1.323-0.45,2.785-0.517
			C10.521,2.718,10.996,2.703,15.001,2.703 M15.001,0c-4.074,0-4.584,0.017-6.185,0.09C7.22,0.164,6.129,0.417,5.175,0.788
			c-0.986,0.383-1.823,0.896-2.657,1.73s-1.347,1.67-1.73,2.657C0.417,6.129,0.164,7.219,0.091,8.816
			c-0.073,1.6-0.09,2.111-0.09,6.185s0.017,4.584,0.09,6.184c0.073,1.597,0.326,2.688,0.697,3.642
			c0.383,0.986,0.896,1.822,1.73,2.656s1.67,1.347,2.657,1.73c0.954,0.371,2.044,0.624,3.641,0.697c1.6,0.073,2.111,0.09,6.185,0.09
			c4.074,0,4.585-0.017,6.185-0.09c1.597-0.073,2.687-0.326,3.641-0.697c0.986-0.383,1.823-0.896,2.657-1.73s1.347-1.67,1.73-2.656
			c0.37-0.954,0.624-2.045,0.696-3.642c0.073-1.6,0.091-2.11,0.091-6.184s-0.018-4.584-0.091-6.185
			c-0.072-1.597-0.326-2.687-0.696-3.641c-0.384-0.986-0.896-1.823-1.73-2.657s-1.671-1.347-2.657-1.73
			c-0.954-0.371-2.044-0.625-3.641-0.697C19.585,0.018,19.074,0,15.001,0L15.001,0z"/>
		<path fill="#FFFFFF" d="M15.001,7.298c-4.254,0-7.703,3.448-7.703,7.703s3.449,7.703,7.703,7.703s7.702-3.448,7.702-7.703
			C22.703,10.747,19.255,7.298,15.001,7.298z M15.001,20.001c-2.761,0-5-2.239-5-5s2.238-5,5-5s5,2.239,5,5
			S17.763,20.001,15.001,20.001z"/>
		<circle fill="#FFFFFF" cx="23.008" cy="6.993" r="1.8"/>
	</g>
</g>
</svg>
