<?xml version="1.0" encoding="utf-8"?>
<!-- Generator: Adobe Illustrator 16.0.0, SVG Export Plug-In . SVG Version: 6.00 Build 0)  -->
<!DOCTYPE svg PUBLIC "-//W3C//DTD SVG 1.1//EN" "http://www.w3.org/Graphics/SVG/1.1/DTD/svg11.dtd">
<svg version="1.1" id="Layer_1" xmlns="http://www.w3.org/2000/svg" xmlns:xlink="http://www.w3.org/1999/xlink" x="0px" y="0px"
	 width="20px" height="20px" viewBox="0 0 20 20" enable-background="new 0 0 20 20" xml:space="preserve">
<g>
	<path fill="#020202" d="M2.378,12.456c1.348,1.368,3.151,2.108,5.064,2.108c1.694,0,3.303-0.589,4.585-1.651l6.692,6.693
		c0.11,0.107,0.262,0.173,0.414,0.173s0.304-0.065,0.413-0.151c0.217-0.238,0.217-0.608,0-0.828l-6.672-6.691
		c2.454-2.826,2.347-7.107-0.349-9.78c-1.347-1.37-3.151-2.108-5.063-2.108c-1.912,0-3.717,0.739-5.085,2.108
		C-0.404,5.11-0.404,9.674,2.378,12.456z M3.203,3.133c1.13-1.13,2.651-1.76,4.26-1.76c1.608,0,3.129,0.63,4.259,1.76
		c2.348,2.347,2.348,6.172,0,8.518c-1.129,1.132-2.651,1.762-4.259,1.762c-1.608,0-3.13-0.63-4.26-1.762
		C0.857,9.305,0.857,5.48,3.203,3.133z"/>
	<path fill="#020202" d="M2.835,6.523c0.086,0.043,0.173,0.065,0.26,0.065c0.218,0,0.414-0.13,0.522-0.326
		C3.922,5.676,4.312,5.131,4.77,4.676c0.412-0.414,0.868-0.739,1.369-1.021c0.26-0.152,0.37-0.5,0.218-0.783
		C6.203,2.611,5.854,2.503,5.572,2.655C4.964,2.981,4.42,3.395,3.943,3.872c-0.564,0.543-1.021,1.194-1.37,1.89
		C2.421,6.045,2.552,6.393,2.835,6.523z"/>
</g>
</svg>
