<?xml version="1.0" encoding="utf-8"?>
<!-- Generator: Adobe Illustrator 16.0.0, SVG Export Plug-In . SVG Version: 6.00 Build 0)  -->
<!DOCTYPE svg PUBLIC "-//W3C//DTD SVG 1.1//EN" "http://www.w3.org/Graphics/SVG/1.1/DTD/svg11.dtd">
<svg version="1.1" id="Layer_1" xmlns="http://www.w3.org/2000/svg" xmlns:xlink="http://www.w3.org/1999/xlink" x="0px" y="0px"
	 width="20px" height="20px" viewBox="0 0 20 20" enable-background="new 0 0 20 20" xml:space="preserve">
<path fill="#37BDC7" d="M0.132,19.163c-0.187,0.203-0.173,0.519,0.031,0.706C0.259,19.957,0.38,20,0.501,20
	c0.136,0,0.271-0.055,0.369-0.162l5.942-6.482C8.139,14.421,9.775,15,11.501,15c2.003,0,3.886-0.781,5.303-2.197
	s2.197-3.3,2.197-5.303s-0.781-3.886-2.197-5.303C15.389,0.78,13.504,0,11.501,0S7.615,0.781,6.197,2.197
	C4.781,3.613,4.001,5.497,4.001,7.5c0,1.945,0.735,3.777,2.075,5.178L0.132,19.163L0.132,19.163z M11.502,14
	c-3.584,0-6.5-2.916-6.5-6.5S7.918,1,11.502,1s6.5,2.916,6.5,6.5S15.086,14,11.502,14z"/>
</svg>
