<?xml version="1.0" encoding="utf-8"?>
<!-- Generator: Adobe Illustrator 21.1.0, SVG Export Plug-In . SVG Version: 6.00 Build 0)  -->
<svg version="1.1" id="Layer_1" xmlns="http://www.w3.org/2000/svg" xmlns:xlink="http://www.w3.org/1999/xlink" x="0px" y="0px"
	 viewBox="0 0 18 18" style="enable-background:new 0 0 18 18;" xml:space="preserve">
<style type="text/css">
	.st0{fill-rule:evenodd;clip-rule:evenodd;fill:#00F7EF;}
	.st1{fill-rule:evenodd;clip-rule:evenodd;}
	.st2{fill-rule:evenodd;clip-rule:evenodd;fill:#FF004F;}
</style>
<g>
	<path class="st0" d="M3.2,15.7C-0.4,12.6,2,5.6,7.5,6.5v0.6C2.8,6.9,0.8,12.5,3.2,15.7z M13.4,3.6c0.6,0.5,1.4,0.8,2.4,0.9v0.6
		C14.6,4.9,13.9,4.3,13.4,3.6z M11.9,0.2c0,0.2,0,0.5,0.1,0.7H9.7v11c0,0.5-0.1,1-0.2,1.4c-0.9,2-3.5,1.7-4.2,0.4
		c1.1,0.7,2.8,0.5,3.5-1.1C9,12.2,9,11.8,9,11.3v-11H11.9z"/>
	<path class="st1" d="M12.5,1L12.5,1c0,0.3,0.1,4,4,4.2c0,3.4,0,0,0,2.9c-0.3,0-2.6-0.1-4-1.4l0,5.6c0,2.5-1.4,5-4,5.5
		c-0.7,0.1-1.4,0.2-2.5-0.1C-0.4,15.7,1.8,6.2,8.2,7.2c0,3.1,0,0,0,3.1c-2.7-0.4-3.5,1.8-2.8,3.4c0.6,1.4,3.3,1.8,4.2-0.3
		C9.7,13,9.7,12.5,9.7,12V1H12.5z"/>
	<path class="st2" d="M7.5,7.1c0.2,0,0.4,0,0.7,0.1c0,3.1,0,0,0,3.1c-2.7-0.4-3.5,1.8-2.8,3.4c0,0,0,0.1,0,0.1
		c-0.3-0.2-0.6-0.5-0.7-0.8C4,11.3,4.9,9.1,7.5,9.5C7.5,6.7,7.5,9.1,7.5,7.1z M15.8,5.1c0.2,0,0.4,0.1,0.7,0.1c0,3.4,0,0,0,2.9
		c-0.3,0-2.6-0.1-4-1.4l0,5.6c0,2.5-1.4,5-4,5.5c-0.7,0.1-1.4,0.2-2.5-0.1c-1.3-0.4-2.2-1-2.8-1.9c0.6,0.5,1.3,0.9,2.1,1.1
		c1.1,0.2,1.8,0.2,2.5,0.1c2.6-0.5,4-3,4-5.5l0-5.6c1.4,1.3,3.7,1.4,4,1.4C15.8,4.6,15.8,7.4,15.8,5.1z M12.5,1L12.5,1
		c0,0.2,0,1.5,0.8,2.6c-1-0.8-1.3-1.9-1.4-2.6H12.5z"/>
</g>
</svg>
