<?xml version="1.0" encoding="utf-8"?>
<!-- Generator: Adobe Illustrator 16.0.0, SVG Export Plug-In . SVG Version: 6.00 Build 0)  -->
<!DOCTYPE svg PUBLIC "-//W3C//DTD SVG 1.1//EN" "http://www.w3.org/Graphics/SVG/1.1/DTD/svg11.dtd">
<svg version="1.1" id="Layer_1" xmlns="http://www.w3.org/2000/svg" xmlns:xlink="http://www.w3.org/1999/xlink" x="0px" y="0px"
	 width="18.432px" height="15px" viewBox="0 0 18.432 15" enable-background="new 0 0 18.432 15" xml:space="preserve">
<path fill="#292C68" d="M5.796,15c6.956,0,10.761-5.763,10.761-10.76c0-0.164,0-0.327-0.012-0.489
	c0.74-0.535,1.38-1.198,1.887-1.958C17.742,2.1,17.01,2.3,16.26,2.389c0.789-0.473,1.381-1.216,1.663-2.092
	c-0.742,0.44-1.555,0.751-2.401,0.918c-1.433-1.523-3.828-1.597-5.351-0.165c-0.982,0.923-1.399,2.3-1.095,3.613
	C6.036,4.512,3.203,3.076,1.283,0.713c-1.004,1.728-0.491,3.938,1.17,5.048c-0.602-0.018-1.19-0.18-1.716-0.473
	c0,0.015,0,0.032,0,0.048c0,1.8,1.269,3.351,3.034,3.707C3.214,9.195,2.63,9.217,2.063,9.107c0.495,1.541,1.915,2.597,3.533,2.627
	c-1.339,1.053-2.993,1.623-4.696,1.622c-0.301,0-0.602-0.02-0.9-0.055c1.729,1.11,3.742,1.698,5.796,1.696"/>
</svg>
