<?xml version="1.0" encoding="utf-8"?>
<!-- Generator: Adobe Illustrator 16.0.0, SVG Export Plug-In . SVG Version: 6.00 Build 0)  -->
<!DOCTYPE svg PUBLIC "-//W3C//DTD SVG 1.1//EN" "http://www.w3.org/Graphics/SVG/1.1/DTD/svg11.dtd">
<svg version="1.1" id="Layer_1" xmlns="http://www.w3.org/2000/svg" xmlns:xlink="http://www.w3.org/1999/xlink" x="0px" y="0px"
	 width="100px" height="112.061px" viewBox="0 0 100 112.061" enable-background="new 0 0 100 112.061" xml:space="preserve">
<g>
	<g>
		<path fill="#010101" d="M96.635,16.127H73.319v-3.802C73.319,5.529,67.792,0,60.995,0H38.831c-6.797,0-12.325,5.529-12.325,12.325
			v3.802H3.19c-1.728,0-3.111,1.382-3.111,3.11s1.383,3.11,3.111,3.11h5.621v73.079c0,9.168,7.464,16.634,16.634,16.634H74.38
			c9.171,0,16.635-7.466,16.635-16.634V22.348h5.62c1.728,0,3.112-1.382,3.112-3.11S98.362,16.127,96.635,16.127z M32.726,12.325
			c0-3.364,2.742-6.104,6.105-6.104h22.164c3.363,0,6.104,2.741,6.104,6.104v3.802H32.726V12.325z M84.792,95.427
			c0,5.736-4.676,10.414-10.412,10.414H25.445c-5.736,0-10.413-4.678-10.413-10.414V22.348h69.784v73.079H84.792z"/>
		<path fill="#010101" d="M49.913,94.69c1.727,0,3.11-1.385,3.11-3.112V36.609c0-1.729-1.383-3.11-3.11-3.11
			c-1.728,0-3.11,1.382-3.11,3.11v54.946C46.803,93.283,48.185,94.69,49.913,94.69z"/>
		<path fill="#010101" d="M29.616,91.256c1.728,0,3.11-1.381,3.11-3.109V40.018c0-1.728-1.382-3.11-3.11-3.11s-3.11,1.382-3.11,3.11
			v48.128C26.506,89.875,27.911,91.256,29.616,91.256z"/>
		<path fill="#010101" d="M70.21,91.256c1.729,0,3.109-1.381,3.109-3.109V40.018c0-1.728-1.381-3.11-3.109-3.11
			c-1.729,0-3.11,1.382-3.11,3.11v48.128C67.1,89.875,68.48,91.256,70.21,91.256z"/>
	</g>
</g>
</svg>
