<?xml version="1.0" encoding="utf-8"?>
<!-- Generator: Adobe Illustrator 16.0.0, SVG Export Plug-In . SVG Version: 6.00 Build 0)  -->
<!DOCTYPE svg PUBLIC "-//W3C//DTD SVG 1.1//EN" "http://www.w3.org/Graphics/SVG/1.1/DTD/svg11.dtd">
<svg version="1.1" id="Layer_1" xmlns="http://www.w3.org/2000/svg" xmlns:xlink="http://www.w3.org/1999/xlink" x="0px" y="0px"
	 width="6px" height="11.023px" viewBox="0 0 6 11.023" enable-background="new 0 0 6 11.023" xml:space="preserve">
<g>
	<path fill="#434343" d="M5.771,5.737l-5.089,5.088c-0.124,0.125-0.327,0.125-0.452,0c-0.124-0.125-0.124-0.328,0-0.452l4.862-4.861
		L0.229,0.65c-0.124-0.123-0.124-0.328,0-0.451c0.063-0.064,0.145-0.096,0.227-0.096S0.62,0.135,0.682,0.199l5.089,5.087
		C5.896,5.411,5.896,5.613,5.771,5.737z"/>
	<path fill="#434343" d="M0.456,0c0.114,0,0.22,0.043,0.301,0.125l5.087,5.087c0.081,0.08,0.125,0.187,0.125,0.3
		s-0.044,0.22-0.125,0.3l-5.087,5.088c-0.081,0.08-0.187,0.124-0.301,0.124c-0.113,0-0.221-0.044-0.3-0.124
		c-0.166-0.166-0.166-0.436,0-0.601l4.787-4.787L0.156,0.725c-0.166-0.166-0.166-0.434,0-0.6C0.235,0.043,0.343,0,0.456,0z
		 M0.456,10.814c0.057,0,0.112-0.022,0.152-0.063l5.088-5.088C5.736,5.623,5.76,5.569,5.76,5.512S5.736,5.4,5.696,5.36L0.607,0.273
		c-0.04-0.041-0.095-0.064-0.151-0.064c-0.058,0-0.111,0.023-0.152,0.064c-0.084,0.082-0.084,0.221,0,0.305l4.936,4.934
		l-4.936,4.935c-0.084,0.085-0.084,0.221,0,0.306C0.345,10.792,0.398,10.814,0.456,10.814z"/>
</g>
</svg>
