<?xml version="1.0" encoding="utf-8"?>
<!-- Generator: Adobe Illustrator 16.0.0, SVG Export Plug-In . SVG Version: 6.00 Build 0)  -->
<!DOCTYPE svg PUBLIC "-//W3C//DTD SVG 1.1//EN" "http://www.w3.org/Graphics/SVG/1.1/DTD/svg11.dtd">
<svg version="1.1" id="Layer_1" xmlns="http://www.w3.org/2000/svg" xmlns:xlink="http://www.w3.org/1999/xlink" x="0px" y="0px"
	 width="6px" height="11.023px" viewBox="0 0 6 11.023" enable-background="new 0 0 6 11.023" xml:space="preserve">
<g>
	<path fill="#434343" d="M0.23,5.286l5.088-5.088c0.124-0.125,0.327-0.125,0.452,0c0.124,0.125,0.124,0.328,0,0.452L0.908,5.512
		l4.862,4.861c0.124,0.123,0.124,0.328,0,0.451c-0.063,0.064-0.145,0.096-0.227,0.096s-0.164-0.031-0.226-0.096L0.23,5.737
		C0.105,5.612,0.105,5.41,0.23,5.286z"/>
	<path fill="#434343" d="M5.544,11.023c-0.114,0-0.22-0.043-0.301-0.125L0.156,5.812c-0.081-0.08-0.125-0.187-0.125-0.3
		s0.044-0.22,0.125-0.3l5.087-5.088C5.324,0.044,5.43,0,5.544,0c0.113,0,0.221,0.044,0.3,0.124c0.166,0.166,0.166,0.436,0,0.601
		L1.057,5.512l4.787,4.787c0.166,0.166,0.166,0.434,0,0.6C5.765,10.98,5.657,11.023,5.544,11.023z M5.544,0.209
		c-0.057,0-0.112,0.022-0.152,0.063L0.304,5.359C0.264,5.4,0.241,5.454,0.241,5.512s0.023,0.111,0.063,0.151l5.089,5.087
		c0.04,0.041,0.095,0.064,0.151,0.064c0.058,0,0.111-0.023,0.152-0.064c0.084-0.082,0.084-0.221,0-0.305L0.761,5.512l4.936-4.935
		c0.084-0.085,0.084-0.221,0-0.306C5.655,0.231,5.602,0.209,5.544,0.209z"/>
</g>
</svg>
