<?xml version="1.0" encoding="utf-8"?>
<!-- Generator: Adobe Illustrator 16.0.0, SVG Export Plug-In . SVG Version: 6.00 Build 0)  -->
<!DOCTYPE svg PUBLIC "-//W3C//DTD SVG 1.1//EN" "http://www.w3.org/Graphics/SVG/1.1/DTD/svg11.dtd">
<svg version="1.1" id="Layer_1" xmlns="http://www.w3.org/2000/svg" xmlns:xlink="http://www.w3.org/1999/xlink" x="0px" y="0px"
	 width="100px" height="35.514px" viewBox="0 0 100 35.514" enable-background="new 0 0 100 35.514" xml:space="preserve">
<g>
	<path fill="#243E90" d="M16.579,1.409c4.589,0.017,9.326,1.102,14.194,3.272l0.23,0.099l0.082,0.23v0.017l0,0
		c0.395,1.2,0.74,2.401,1.02,3.602c0.279,1.201,0.51,2.401,0.674,3.603c0.23,1.579,0.362,3.142,0.395,4.721v1.842
		c-0.099,3.98-0.79,7.961-2.089,11.941l-0.082,0.229l-0.23,0.099c-4.605,2.04-9.227,3.043-13.832,3.043c-0.115,0-0.23,0-0.362,0
		v-1.118c0.131,0,0.247,0,0.362,0c4.375,0,8.766-0.938,13.158-2.846c1.908-5.921,2.434-11.842,1.579-17.764
		c-0.165-1.151-0.395-2.335-0.674-3.503c-0.247-1.086-0.56-2.188-0.905-3.273c-4.655-2.039-9.161-3.059-13.52-3.075V1.409z
		 M3.076,4.698c4.309-2.204,8.783-3.289,13.405-3.289c0.033,0,0.065,0,0.099,0v1.118c-0.033,0-0.066,0-0.099,0
		c-4.392,0-8.619,1.02-12.714,3.075C2.105,9.55,1.167,13.563,1.119,17.659c-0.066,4.063,0.773,8.224,2.631,12.467
		c4.276,1.858,8.553,2.813,12.829,2.862v1.118c-4.49-0.05-8.98-1.053-13.471-3.043l-0.296-0.279C0.905,26.507,0.017,22.296,0,18.168
		v-0.296c0-0.083,0-0.148,0-0.23c0.049-4.293,1.053-8.52,2.813-12.665L3.076,4.698z"/>
	<path fill-rule="evenodd" clip-rule="evenodd" fill="#243E90" d="M16.875,26.885c-0.23-3.141-0.083-6.414-1.02-9.408
		c-0.872-2.796-4.177-4.391-4.243-7.467c-0.066-2.401,1.76-5.181,5.181-5.181C20,4.813,21.99,7.149,22.22,9.748
		c0.28,3.01-3.372,5.032-4.326,7.895C16.908,20.57,17.188,23.81,16.875,26.885z"/>
	<path fill-rule="evenodd" clip-rule="evenodd" fill="#243E90" d="M18.142,26.129c-0.132-2.73-0.132-5.346,0.625-7.665
		c0.838-2.632,2.582-4.852,5.247-5.576c1.826-0.493,4.506,1.646,4.079,3.833c-0.362,1.76-2.122,3.832-4.951,4.063
		c-1.316,0.115-1.875,1.168-2.697,1.776c3.684-0.362,6.069-1.81,7.73-3.322c0.247,1.282,0.411,3.438-0.592,4.178
		c-1.974,1.397-3.799,0.263-6.118,0.921C20.165,24.714,19.358,25.537,18.142,26.129z"/>
	<path fill-rule="evenodd" clip-rule="evenodd" fill="#243E90" d="M15.625,26.129c0.148-2.73,0.132-5.346-0.608-7.665
		c-0.839-2.632-2.583-4.852-5.247-5.576c-1.826-0.493-4.523,1.646-4.079,3.833c0.362,1.76,2.122,3.832,4.951,4.063
		c1.299,0.115,1.875,1.168,2.697,1.776c-3.701-0.362-6.069-1.81-7.73-3.322c-0.247,1.282-0.411,3.438,0.592,4.178
		c1.974,1.397,3.799,0.263,6.118,0.921C13.618,24.714,14.408,25.537,15.625,26.129z"/>
	<path fill-rule="evenodd" clip-rule="evenodd" fill="#243E90" d="M24.392,30.192v-0.444l0.329-0.082l-0.329-0.494v-0.822
		l1.48,2.057l-0.526,0.131l-0.362-0.51L24.392,30.192z M24.392,28.349v0.822l-0.23-0.329l-0.099,0.987l0.329-0.082v0.444
		l-0.378,0.082l-0.066,0.608l-0.526,0.132l0.346-2.682l0.526-0.131L24.392,28.349L24.392,28.349z M19.49,31.623v-0.428h0.115
		c0.181-0.017,0.296-0.033,0.346-0.05c0.066-0.016,0.131-0.065,0.165-0.115c0.049-0.065,0.065-0.131,0.065-0.213
		c-0.016-0.082-0.033-0.148-0.082-0.197c-0.033-0.05-0.099-0.083-0.165-0.1c-0.065-0.016-0.214-0.016-0.444,0v-0.427
		c0.131,0,0.214-0.017,0.247-0.017c0.082-0.017,0.148-0.065,0.197-0.115s0.066-0.115,0.049-0.197c0-0.082-0.033-0.148-0.082-0.182
		c-0.033-0.049-0.099-0.082-0.197-0.082c-0.033,0-0.099,0-0.214,0.017v-0.428c0.181-0.017,0.313-0.017,0.395,0
		c0.099,0,0.197,0.033,0.28,0.082c0.082,0.033,0.148,0.1,0.214,0.182c0.049,0.082,0.082,0.181,0.099,0.296s-0.017,0.23-0.066,0.329
		s-0.131,0.181-0.247,0.246c0.165,0.033,0.296,0.099,0.378,0.197c0.099,0.099,0.148,0.214,0.165,0.362
		c0,0.115-0.016,0.23-0.049,0.346c-0.049,0.115-0.115,0.197-0.197,0.279c-0.099,0.065-0.197,0.115-0.329,0.148
		c-0.082,0.016-0.296,0.032-0.608,0.065H19.49L19.49,31.623z M22.599,30.241l0.51,0.065c-0.033,0.28-0.115,0.511-0.263,0.675
		c-0.148,0.148-0.362,0.264-0.625,0.313c-0.329,0.05-0.625-0.017-0.872-0.197c-0.263-0.197-0.411-0.477-0.493-0.872
		c-0.066-0.411-0.017-0.756,0.164-1.02c0.165-0.263,0.428-0.428,0.773-0.493c0.313-0.05,0.559,0,0.789,0.147
		c0.132,0.083,0.247,0.214,0.329,0.412l-0.477,0.197c-0.049-0.115-0.131-0.214-0.23-0.264c-0.115-0.065-0.23-0.082-0.362-0.065
		c-0.181,0.032-0.313,0.132-0.411,0.279c-0.099,0.164-0.115,0.378-0.066,0.675c0.066,0.313,0.165,0.526,0.296,0.642
		c0.132,0.114,0.296,0.164,0.477,0.131c0.131-0.032,0.23-0.099,0.313-0.197S22.582,30.421,22.599,30.241z M19.49,29.089v0.428
		c-0.066,0-0.132,0.017-0.214,0.017l-0.296,0.032l0.049,0.576l0.345-0.033c0.033,0,0.082,0,0.115-0.016v0.427c0,0,0,0-0.017,0
		l-0.395,0.033l0.049,0.675l0.362-0.033v0.428l-0.823,0.082l-0.23-2.517l1.003-0.082C19.457,29.089,19.474,29.089,19.49,29.089
		L19.49,29.089z M16.316,30.75v-0.428c0.115,0,0.181-0.017,0.23-0.032c0.066-0.017,0.115-0.066,0.165-0.115
		c0.033-0.066,0.049-0.132,0.049-0.197c0.017-0.099-0.017-0.165-0.065-0.23c-0.05-0.065-0.115-0.099-0.198-0.115
		c-0.049,0-0.099-0.017-0.181-0.017v-0.428c0.247,0,0.395,0.017,0.477,0.05c0.148,0.033,0.264,0.115,0.362,0.246
		c0.099,0.132,0.148,0.297,0.131,0.494c0,0.147-0.033,0.279-0.082,0.395c-0.066,0.099-0.132,0.181-0.214,0.247
		c-0.099,0.049-0.181,0.082-0.28,0.115C16.612,30.75,16.48,30.75,16.316,30.75z M16.316,29.188v0.428c-0.049,0-0.115,0-0.197,0
		l-0.247-0.017v0.724h0.263c0.066,0,0.132,0,0.181,0v0.428c-0.033,0-0.083,0-0.132,0h-0.329l-0.016,0.954l-0.51-0.017l0.049-2.517
		l0.806,0.017C16.233,29.188,16.283,29.188,16.316,29.188L16.316,29.188z M11.563,30.504v-0.773
		c0.148,0.033,0.247,0.033,0.296,0.033c0.066-0.017,0.115-0.033,0.165-0.082c0.033-0.05,0.066-0.1,0.082-0.182
		c0.017-0.082,0-0.147-0.033-0.214c-0.033-0.065-0.099-0.099-0.181-0.131c-0.033-0.017-0.148-0.033-0.329-0.066v-0.428l0.214,0.033
		c0.263,0.049,0.444,0.099,0.559,0.164c0.115,0.066,0.197,0.165,0.247,0.297c0.049,0.115,0.066,0.263,0.033,0.41
		c-0.033,0.182-0.115,0.33-0.247,0.429c-0.115,0.099-0.296,0.147-0.526,0.147c0.099,0.082,0.181,0.164,0.23,0.247
		c0.066,0.099,0.132,0.246,0.214,0.46l0.214,0.543l-0.592-0.115l-0.263-0.608C11.612,30.62,11.595,30.553,11.563,30.504
		L11.563,30.504z M13.01,28.942l0.494,0.049l-0.115,1.365c-0.017,0.214-0.017,0.362-0.017,0.411
		c0.017,0.115,0.066,0.197,0.132,0.263c0.082,0.083,0.181,0.115,0.329,0.132s0.263-0.017,0.329-0.065
		c0.083-0.05,0.132-0.115,0.165-0.197c0.016-0.082,0.033-0.23,0.049-0.428l0.115-1.398l0.51,0.05l-0.115,1.315
		c-0.017,0.313-0.049,0.526-0.099,0.642c-0.033,0.115-0.099,0.23-0.165,0.296c-0.082,0.083-0.197,0.148-0.329,0.182
		c-0.115,0.049-0.28,0.049-0.477,0.032c-0.247-0.017-0.428-0.065-0.543-0.131c-0.115-0.066-0.214-0.148-0.28-0.23
		c-0.065-0.099-0.099-0.198-0.115-0.296c-0.017-0.148-0.017-0.362,0-0.642L13.01,28.942z M9.013,29.682l0.099-0.411l1.069,0.279
		l-0.263,0.97c-0.132,0.083-0.296,0.132-0.526,0.148c-0.214,0.017-0.411,0-0.609-0.049c-0.263-0.066-0.477-0.182-0.625-0.329
		c-0.165-0.165-0.263-0.362-0.313-0.576c-0.033-0.23-0.033-0.46,0.033-0.69c0.065-0.247,0.181-0.461,0.345-0.642
		c0.148-0.164,0.345-0.264,0.576-0.313c0.181-0.05,0.395-0.033,0.625,0.033c0.296,0.082,0.526,0.197,0.658,0.378
		c0.132,0.164,0.198,0.378,0.181,0.608l-0.51-0.033c0-0.131-0.033-0.246-0.115-0.345c-0.082-0.082-0.181-0.164-0.329-0.197
		c-0.214-0.05-0.395-0.033-0.559,0.065s-0.28,0.296-0.362,0.56c-0.083,0.296-0.066,0.526,0.017,0.707
		c0.099,0.181,0.247,0.296,0.444,0.346c0.115,0.032,0.214,0.032,0.329,0.032c0.115-0.017,0.214-0.049,0.313-0.082l0.082-0.313
		L9.013,29.682L9.013,29.682z M11.563,28.662l-0.855-0.147l-0.427,2.483l0.493,0.082l0.181-1.036l0.115,0.017
		c0.115,0.017,0.197,0.049,0.247,0.065c0.049,0.033,0.082,0.082,0.131,0.132c0.017,0.049,0.066,0.132,0.115,0.247v-0.773
		c-0.049,0-0.099-0.017-0.165-0.017l-0.362-0.065l0.099-0.625l0.395,0.065c0.017,0,0.033,0,0.033,0V28.662z"/>
	<path fill-rule="evenodd" clip-rule="evenodd" fill="#243E90" d="M89.951,25.586v-4.639h2.039V12.79l-2.039,4.079V6.688h8.01
		L100,30.142h-8.01v-4.556H89.951z M89.951,6.688v10.181l-2.04,4.079h2.04v4.639h-3.85l-1.578,4.31h-4.968v-5.362l5.543-11.958
		h-1.135l3.158-5.888H89.951L89.951,6.688z M79.556,14.5l2.483-5.889l-2.483-1.381V14.5z M59.803,12.248
		c0.115-0.675,0.115-1.333,0-1.958V12.248L59.803,12.248z M79.556,7.231v7.27l-0.329,0.789c-4.9-3.503-12.138-0.313-12.549,3.389
		c-0.411,3.865,2.533,6.99,10.049,4.655l-2.582,6.907c-9.918,1.103-13.767-2.829-14.342-7.418v-2.599
		c0.148-1.2,0.46-2.368,0.888-3.454c4.885-12.138,12.813-9.407,15.823-9.638l0.443-1.349L79.556,7.231L79.556,7.231z M79.556,24.534
		l-2.483,5.362h2.483V24.534z M50.888,29.748c5.313-1.053,10.526-7.435,5.296-12.517c2.039-1.086,3.306-3.043,3.618-4.983V10.29
		c-0.362-2.022-1.925-3.667-4.868-3.717l-4.046-0.082v4.507h1.677c1.793,0,1.563,4.638-0.674,4.638h-1.003v3.553
		c2.417,0.461,1.563,3.816,0,4.853V29.748L50.888,29.748z M59.803,20.224v2.599C59.704,21.967,59.704,21.096,59.803,20.224z
		 M43.881,6.342l-3.273,6.349l1.464-0.115l-3.947,17.32h11.299c0.494,0,0.971-0.05,1.464-0.148v-5.707
		c-0.28,0.197-0.592,0.313-0.905,0.313h-4.063l1.349-5.214h3.043c0.214,0,0.411,0.017,0.576,0.049v-3.553h-2.829l1.135-4.638h1.694
		V6.491L43.881,6.342z"/>
</g>
</svg>
