<?xml version="1.0" encoding="utf-8"?>
<!-- Generator: Adobe Illustrator 16.0.0, SVG Export Plug-In . SVG Version: 6.00 Build 0)  -->
<!DOCTYPE svg PUBLIC "-//W3C//DTD SVG 1.1//EN" "http://www.w3.org/Graphics/SVG/1.1/DTD/svg11.dtd">
<svg version="1.1" id="Layer_1" xmlns="http://www.w3.org/2000/svg" xmlns:xlink="http://www.w3.org/1999/xlink" x="0px" y="0px"
	 width="20px" height="20px" viewBox="0 0 20 20" enable-background="new 0 0 20 20" xml:space="preserve">
<g>
	<path fill="#020202" d="M17.979,17.271L16.837,4.407c-0.024-0.285-0.265-0.502-0.548-0.502h-2.35
		C13.907,1.76,12.154,0.026,10,0.026c-2.155,0-3.909,1.733-3.941,3.879H3.71c-0.285,0-0.523,0.217-0.548,0.502L2.021,17.271
		c0,0.016-0.004,0.031-0.004,0.048c0,1.464,1.342,2.655,2.994,2.655h9.978c1.651,0,2.995-1.191,2.995-2.655
		C17.983,17.302,17.983,17.286,17.979,17.271z M10,1.127c1.546,0,2.806,1.24,2.838,2.778H7.161C7.194,2.368,8.453,1.127,10,1.127z
		 M14.988,18.873H5.011c-1.036,0-1.876-0.686-1.892-1.532l1.092-12.33h1.844v1.672c0,0.305,0.245,0.55,0.55,0.55
		c0.306,0,0.551-0.245,0.551-0.55V5.011h5.682v1.672c0,0.305,0.246,0.55,0.551,0.55c0.306,0,0.55-0.245,0.55-0.55V5.011h1.844
		l1.097,12.33C16.865,18.188,16.021,18.873,14.988,18.873z"/>
</g>
</svg>
