<?xml version="1.0" encoding="utf-8"?>
<!-- Generator: Adobe Illustrator 16.0.0, SVG Export Plug-In . SVG Version: 6.00 Build 0)  -->
<!DOCTYPE svg PUBLIC "-//W3C//DTD SVG 1.1//EN" "http://www.w3.org/Graphics/SVG/1.1/DTD/svg11.dtd">
<svg version="1.1" id="Layer_1" xmlns="http://www.w3.org/2000/svg" xmlns:xlink="http://www.w3.org/1999/xlink" x="0px" y="0px"
	 width="20px" height="20px" viewBox="0 0 20 20" enable-background="new 0 0 20 20" xml:space="preserve">
<rect x="4.347" y="3.814" width="12.016" height="12.017"/>
<g>
	<path fill="#FFFFFF" d="M10.001,0C4.462,0,0.015,4.448,0.015,9.986c0,5.536,4.448,9.983,9.986,9.983
		c5.536,0,9.983-4.447,9.983-9.983C19.984,4.448,15.537,0,10.001,0L10.001,0z M11.452,10.168l3.403,3.404
		c0.092,0.088,0.136,0.226,0.136,0.316c0,0.09-0.044,0.225-0.136,0.314l-0.638,0.637c-0.091,0.092-0.226,0.137-0.315,0.137
		c-0.137,0-0.229-0.045-0.315-0.137l-3.405-3.402c-0.09-0.092-0.228-0.092-0.319,0L6.46,14.841
		c-0.091,0.091-0.226,0.136-0.317,0.136c-0.137,0-0.229-0.045-0.319-0.136L5.19,14.204c-0.091-0.091-0.137-0.226-0.137-0.315
		c0-0.091,0.046-0.229,0.137-0.315l3.404-3.404c0.091-0.091,0.091-0.229,0-0.319L5.189,6.445c-0.09-0.091-0.137-0.226-0.137-0.317
		s0.046-0.229,0.137-0.319l0.634-0.634c0.091-0.091,0.229-0.137,0.319-0.137c0.09,0,0.226,0.046,0.317,0.137l3.403,3.404
		c0.092,0.091,0.229,0.091,0.319,0l3.405-3.404c0.088-0.091,0.227-0.137,0.316-0.137c0.135,0,0.226,0.046,0.314,0.137l0.639,0.634
		c0.09,0.09,0.135,0.228,0.135,0.319s-0.045,0.226-0.135,0.317l-3.404,3.404C11.361,9.896,11.361,10.077,11.452,10.168
		L11.452,10.168z"/>
</g>
</svg>
