<?xml version="1.0" encoding="utf-8"?>
<!-- Generator: Adobe Illustrator 16.0.0, SVG Export Plug-In . SVG Version: 6.00 Build 0)  -->
<!DOCTYPE svg PUBLIC "-//W3C//DTD SVG 1.1//EN" "http://www.w3.org/Graphics/SVG/1.1/DTD/svg11.dtd">
<svg version="1.1" id="Layer_1" xmlns="http://www.w3.org/2000/svg" xmlns:xlink="http://www.w3.org/1999/xlink" x="0px" y="0px"
	 width="20px" height="20px" viewBox="0 0 20 20" enable-background="new 0 0 20 20" xml:space="preserve">
<g>
	<path fill="#46A044" d="M10,17c-1.87,0-3.627-0.729-4.95-2.05C3.727,13.628,3,11.87,3,10.001c0-1.871,0.728-3.627,2.05-4.95
		C6.372,3.728,8.13,3,10,3s3.627,0.728,4.95,2.051C16.272,6.374,17,8.13,17,10.001c0,1.869-0.729,3.627-2.05,4.949
		C13.628,16.271,11.87,17,10,17z M10,3.737c-3.454,0-6.263,2.81-6.263,6.263c0,3.454,2.81,6.264,6.263,6.264
		c3.454,0,6.264-2.81,6.264-6.264C16.264,6.546,13.454,3.737,10,3.737z"/>
	<path fill="#46A044" d="M8.526,12.947c-0.094,0-0.189-0.036-0.261-0.107l-2.211-2.211c-0.144-0.144-0.144-0.377,0-0.521
		c0.144-0.143,0.378-0.143,0.521,0l1.949,1.95l4.896-4.896c0.144-0.144,0.378-0.144,0.521,0s0.144,0.377,0,0.521L8.786,12.84
		c-0.072,0.072-0.167,0.107-0.261,0.107H8.526z"/>
</g>
</svg>
