<?xml version="1.0" encoding="utf-8"?>
<!-- Generator: Adobe Illustrator 16.0.0, SVG Export Plug-In . SVG Version: 6.00 Build 0)  -->
<!DOCTYPE svg PUBLIC "-//W3C//DTD SVG 1.1//EN" "http://www.w3.org/Graphics/SVG/1.1/DTD/svg11.dtd">
<svg version="1.1" id="Layer_1" xmlns="http://www.w3.org/2000/svg" xmlns:xlink="http://www.w3.org/1999/xlink" x="0px" y="0px"
	 width="20px" height="20px" viewBox="0 0 20 20" enable-background="new 0 0 20 20" xml:space="preserve">
<g>
	<path fill="#FF3333" d="M13.561,12.672L10.554,10l3.007-2.671c0.151-0.135,0.165-0.368,0.031-0.521
		c-0.136-0.153-0.368-0.166-0.521-0.031L10,9.507l-3.071-2.73c-0.152-0.135-0.384-0.122-0.52,0.031
		C6.273,6.96,6.287,7.192,6.44,7.329L9.446,10L6.44,12.672c-0.152,0.135-0.167,0.367-0.031,0.521
		c0.073,0.082,0.174,0.123,0.275,0.123c0.087,0,0.175-0.03,0.245-0.093L10,10.493l3.071,2.729c0.07,0.063,0.158,0.093,0.244,0.093
		c0.103,0,0.203-0.041,0.276-0.123C13.726,13.04,13.713,12.808,13.561,12.672z"/>
	<path fill="#FF3333" d="M10,17c-1.87,0-3.627-0.729-4.95-2.05C3.727,13.628,3,11.87,3,10.001c0-1.871,0.728-3.627,2.05-4.95
		C6.372,3.728,8.13,3,10,3s3.627,0.728,4.95,2.051C16.272,6.374,17,8.13,17,10.001c0,1.869-0.729,3.627-2.05,4.949
		C13.628,16.271,11.87,17,10,17z M10,3.737c-3.454,0-6.263,2.81-6.263,6.263c0,3.454,2.81,6.264,6.263,6.264
		c3.454,0,6.264-2.81,6.264-6.264C16.264,6.546,13.454,3.737,10,3.737z"/>
</g>
</svg>
